<?xml version="1.0" encoding="UTF-8"?>
<svg id="Papers" xmlns="http://www.w3.org/2000/svg" viewBox="0 0 492.36 425.23">
  <defs>
    <style>
      .cls-1, .cls-2, .cls-3, .cls-4, .cls-5, .cls-6 {
        opacity: .4;
      }

      .cls-1, .cls-7, .cls-8, .cls-9 {
        fill: #5aa745;
      }

      .cls-10 {
        fill: #f0f0f0;
      }

      .cls-11 {
        fill: #034163;
        opacity: .85;
      }

      .cls-12, .cls-2, .cls-13, .cls-14, .cls-15 {
        fill: #fff;
      }

      .cls-16 {
        fill: #fafafa;
      }

      .cls-17, .cls-18 {
        opacity: .5;
      }

      .cls-19 {
        fill: #37474f;
      }

      .cls-20, .cls-21 {
        opacity: .6;
      }

      .cls-22 {
        fill: #f5f5f5;
      }

      .cls-23 {
        fill: #00497a;
      }

      .cls-13, .cls-7, .cls-24 {
        opacity: .3;
      }

      .cls-25 {
        fill: #455a64;
      }

      .cls-21 {
        fill: #034877;
      }

      .cls-26, .cls-15 {
        opacity: .2;
      }

      .cls-27 {
        fill: #f28f8f;
      }

      .cls-28 {
        fill: #64af4b;
      }

      .cls-29 {
        fill: #116299;
      }

      .cls-30 {
        fill: #e0e0e0;
      }

      .cls-3, .cls-31 {
        fill: #ba68c8;
      }

      .cls-14, .cls-9 {
        opacity: .7;
      }

      .cls-32 {
        fill: #e6e6e6;
      }

      .cls-33, .cls-34 {
        opacity: .15;
      }

      .cls-35 {
        fill: #004370;
      }

      .cls-5, .cls-18, .cls-36 {
        fill: #447236;
      }

      .cls-34, .cls-37, .cls-6 {
        fill: #01508d;
      }

      .cls-38 {
        opacity: .1;
      }

      .cls-39 {
        fill: #ebebeb;
      }

      .cls-40 {
        fill: #7ec66a;
      }

      .cls-41 {
        fill: #03426d;
      }

      .cls-42 {
        fill: #444344;
      }

      .cls-43 {
        fill: #263238;
      }

      .cls-44 {
        fill: #ffa8a7;
      }
    </style>
  </defs>
  <path id="Floor-2" data-name="Floor" class="cls-22" d="m70.6,187.66c-94.13,54.35-94.13,142.46,0,196.81,94.13,54.35,246.76,54.35,340.89,0,94.13-54.35,94.13-142.46,0-196.81-94.13-54.35-246.76-54.35-340.89,0Z"/>
  <path id="Shadow" class="cls-30" d="m385.94,330.59l-10.43-6.02c-2.14-1.24-5.56-1.15-7.64.19l-53.86,28.92c-10.51-6.14-25.04-9.93-41.08-9.93-32.09,0-58.1,15.19-58.1,33.92s26.01,33.92,58.1,33.92,58.1-15.19,58.1-33.92c0-5.99-2.67-11.61-7.34-16.49l62.14-26.28c2.2-1.13,2.24-3.06.1-4.29Z"/>
  <path id="Shadow-2" data-name="Shadow" class="cls-30" d="m181.02,380.37c-2.29,0-4.48-.54-6.17-1.51l-100.09-57.78-15.91,3c-.45.08-.9.13-1.35.13-1.28,0-2.55-.34-3.66-.98l-41.9-24.14c-1.74-1-3.01-2.7-3.47-4.66-.46-1.96-.09-4.04,1.01-5.72l.07-.1,2.65-3.65-4.06-2.34c-2.13-1.23-3.35-3.1-3.36-5.13,0-2.03,1.21-3.91,3.34-5.14l137.18-79.71,182.23,105.2-140.35,81.03c-1.69.98-3.88,1.51-6.17,1.51Z"/>
  <path id="Shadow-3" data-name="Shadow" class="cls-30" d="m361.23,268.39l97.78-56.45c2.52-1.45,2.52-3.81,0-5.26l-130.98-75.62c-2.52-1.45-6.6-1.45-9.12,0l-97.78,56.45c-2.52,1.45-2.52,3.81,0,5.26l130.98,75.62c2.52,1.45,6.6,1.45,9.12,0Z"/>
  <path id="Gear" class="cls-10" d="m78.33,58.26l-5.14,6.26c-.62.75-1.91,1.08-2.88.8-1.43-.4-2.88-.69-4.34-.86-.95-.11-2.06-1.35-2.51-2.84l-1.73-5.78c-.44-1.49-1.51-2.54-2.38-2.36l-8.93,1.85c-.87.18-1.49,1.5-1.38,2.95l.49,6.43c.11,1.45-.45,2.94-1.22,3.38-1.38.79-2.71,1.69-3.97,2.71-.71.58-2.07.67-3.06.14l-6.48-3.47c-.99-.53-2.24-.26-2.8.59l-4.9,7.47c-.56.85-.23,2.22.73,3.05l5.18,4.49c.96.83,1.43,2.38,1.11,3.54-.32,1.2-.57,2.42-.74,3.64-.18,1.27-.93,2.6-1.77,2.87l-7.84,2.56c-.84.27-1.3,1.7-1.02,3.19l1.3,7.02c.28,1.49,1.23,2.63,2.13,2.54l8.09-.75c.9-.08,2.15,1,2.91,2.3.46.8.97,1.58,1.51,2.34.84,1.18,1.19,2.79.7,3.74l-3.57,6.95c-.49.95-.09,2.27.89,2.94l6.63,4.56c.98.67,2.28.61,2.9-.14l5.14-6.26c.62-.75,1.91-1.08,2.89-.8,1.43.4,2.88.69,4.34.86.95.11,2.06,1.35,2.51,2.84l1.73,5.78c.44,1.49,1.51,2.54,2.38,2.36l8.93-1.85c.87-.18,1.49-1.5,1.38-2.95l-.49-6.43c-.11-1.45.45-2.94,1.22-3.38,1.38-.79,2.71-1.69,3.97-2.71.71-.58,2.07-.66,3.06-.14l6.48,3.47c.99.53,2.24.26,2.8-.59l4.9-7.47c.56-.85.23-2.22-.73-3.05l-5.18-4.49c-.96-.83-1.43-2.38-1.11-3.54.32-1.2.57-2.42.74-3.64.18-1.28.93-2.59,1.77-2.87l7.84-2.56c.84-.27,1.3-1.7,1.02-3.19l-1.3-7.02c-.28-1.49-1.23-2.63-2.13-2.54l-8.09.75c-.9.08-2.15-1-2.91-2.3-.46-.8-.97-1.58-1.51-2.34-.84-1.18-1.19-2.79-.7-3.74l3.57-6.95c.49-.95.09-2.27-.89-2.94l-6.63-4.56c-.98-.67-2.28-.61-2.9.14Zm-6.43,21.4c7.81,5.38,9.83,16.29,4.52,24.38-5.31,8.09-15.95,10.29-23.75,4.92-7.81-5.37-9.83-16.29-4.52-24.38,5.31-8.09,15.95-10.29,23.75-4.92Z"/>
  <path id="Gear-2" data-name="Gear" class="cls-10" d="m142.98,38.61l-3.59,4.37c-.43.53-1.34.75-2.02.56-1-.28-2.01-.48-3.03-.6-.66-.08-1.44-.95-1.75-1.98l-1.21-4.04c-.31-1.04-1.06-1.78-1.67-1.65l-6.24,1.29c-.61.13-1.04,1.05-.96,2.06l.35,4.49c.08,1.01-.31,2.05-.85,2.36-.97.55-1.89,1.18-2.77,1.89-.5.4-1.45.47-2.14.1l-4.53-2.42c-.69-.37-1.56-.18-1.95.41l-3.42,5.22c-.39.59-.16,1.55.51,2.13l3.62,3.14c.67.58,1,1.67.78,2.47-.23.84-.4,1.69-.52,2.54-.13.89-.65,1.81-1.24,2.01l-5.48,1.79c-.59.19-.91,1.19-.72,2.23l.91,4.9c.19,1.04.86,1.84,1.49,1.78l5.65-.52c.63-.06,1.5.7,2.03,1.61.32.56.68,1.1,1.05,1.63.59.82.83,1.95.49,2.61l-2.49,4.86c-.34.66-.06,1.59.62,2.06l4.63,3.19c.68.47,1.59.43,2.02-.1l3.59-4.37c.43-.53,1.34-.75,2.02-.56,1,.28,2.01.48,3.03.6.66.08,1.44.95,1.75,1.98l1.21,4.04c.31,1.04,1.06,1.78,1.67,1.65l6.24-1.29c.61-.13,1.04-1.05.96-2.06l-.35-4.49c-.08-1.01.31-2.05.85-2.36.97-.55,1.89-1.18,2.77-1.89.5-.4,1.45-.46,2.14-.1l4.53,2.42c.69.37,1.56.18,1.95-.41l3.42-5.22c.39-.59.16-1.55-.51-2.13l-3.62-3.14c-.67-.58-1-1.67-.78-2.48.23-.84.4-1.69.52-2.54.13-.89.65-1.81,1.24-2.01l5.48-1.79c.59-.19.91-1.19.72-2.23l-.91-4.91c-.19-1.04-.86-1.84-1.49-1.78l-5.65.52c-.63.06-1.5-.7-2.03-1.61-.32-.56-.68-1.1-1.05-1.63-.59-.82-.83-1.95-.49-2.61l2.49-4.86c.34-.66.06-1.59-.62-2.06l-4.63-3.19c-.68-.47-1.59-.43-2.02.1Zm-4.49,14.95c5.46,3.76,6.87,11.38,3.16,17.04-3.71,5.65-11.14,7.19-16.6,3.44-5.46-3.76-6.87-11.38-3.16-17.04,3.71-5.65,11.14-7.19,16.6-3.44Z"/>
  <path class="cls-31" d="m448.58,210.73l-3.59-1.92,3.27-.78c.67.76.71,1.68.32,2.7Z"/>
  <path class="cls-17" d="m448.58,210.73l-3.59-1.92,3.27-.78c.67.76.71,1.68.32,2.7Z"/>
  <g>
    <path class="cls-37" d="m353.42,258.65c2.02,1.16,5.29,1.16,7.31,0l82.01-47.35-122.76-69.73-2.87-1.66-82,46.2c-2.01,1.17-2.01,3.06,0,4.22l118.32,68.32Z"/>
    <path class="cls-37" d="m384.22,170.36l28.6,16.46,18.51-10.69,21.54,12.44v14.37c0,1.88-2.11,4.56-2.88,4.12,0,0-1.69.34-4.12,1.46-2.43,1.12-5.94,4.4-5.94,4.4l-65.71-36.79,10-5.78Z"/>
    <path class="cls-34" d="m384.22,170.36l28.6,16.46,18.51-10.69,21.54,12.44v14.37c0,1.88-2.11,4.56-2.88,4.12,0,0-1.69.34-4.12,1.46-2.43,1.12-5.94,4.4-5.94,4.4l-65.71-36.79,10-5.78Z"/>
    <path class="cls-37" d="m441.05,190.3v15.6c.09-.06.17-.11.25-.16.87-.5,2.18-1.09,3.5-1.09.9,0,1.69.07,2.31.54v-18.39l-6.06,3.5Z"/>
    <path class="cls-37" d="m437.03,211.26c.03-.93.43-1.84,1.03-2.66.29-.41.64-.79,1.01-1.16.11-.11.23-.22.35-.33.15-.13.3-.25.45-.38.13-.1.25-.19.38-.28.27-.2.54-.38.81-.54v-15.54l-4.01,2.32v-.08l-.02,18.64Z"/>
    <path class="cls-6" d="m452.86,202.94c0,1.88-2.11,4.56-2.88,4.12h0l-2.88-1.87v-11.86l2.88-4.96,1.57-.56,1.3.75v14.37Z"/>
  </g>
  <path class="cls-39" d="m357.08,238.78v17.8c.89,0,1.77-.18,2.43-.58l9-5.19,68.52-39.56v-18.64s-79.95,46.17-79.95,46.17Z"/>
  <path class="cls-22" d="m237.16,171.92v13.44c0,1.55,1.1,3.44,2.43,4.22l106.07,61.24,8.98,5.19c.66.39,1.55.58,2.43.58v-15.79l-119.92-68.87Z"/>
  <path class="cls-23" d="m319.98,118.44l122.76,70.88v1.64c0,.91,1.28,1.25,2.85.34,1.59-.91,2.87-2.05,2.87-3.63l.15-1.56-125.08-72.21-.51-.29c-.13.24-.21.51-.21.76v.76c0,.91-1.27,2.38-2.84,3.3Z"/>
  <path class="cls-38" d="m304.39,120.23l122.76,70.88v1.64c0,.91,1.28,1.25,2.85.34,1.59-.91,2.87-2.05,2.87-3.63l.15-1.56-125.08-72.21-.51-.29c-.13.24-.21.51-.21.76v.76c0,.91-1.27,2.38-2.84,3.3Z"/>
  <path class="cls-37" d="m360.73,236.67l80.19-46.3c1.02-.53,1.95-.96,2.34-.76l-.52-.29-122.76-70.88s-.72-.41-1.43-.83c-.79-.46-2.52-.2-3.87.57l-79.57,45.94c-2.01,1.17-2.01,3.07,0,4.22l118.32,68.33c2.02,1.16,5.29,1.16,7.31,0Z"/>
  <path class="cls-37" d="m323.03,113.62l.51.29,125.08,72.21s.08-.2.27-.34c.11-.07.25-.14.42-.24l.9-.52c.34-.2.72-.42,1.11-.65.52-.29,1-.24,1.42.13.06.03.1.07.14.13.14.14.27.32.38.52.13.21.24.45.32.7.1.25.18.53.25.82.07.31.13.62.18.96.04.18.06.38.07.58.01.15.03.3.04.46.03.35.04.72.04,1.1v-3.51c0-1.94-1.64-4.46-3.65-5.62l-118.33-68.33c-2.02-1.17-4.93-1.36-6.51-.46l-1.49.87-.06.03c-.1.07-.35.21-.63.37,0,0-.01,0-.01.01-.17.1-.34.28-.45.51Z"/>
  <path class="cls-37" d="m360.73,258.65l4.95-2.87,74.24-42.86c.03-.93.41-1.84,1.01-2.66.84-1.18,2.11-2.19,3.25-2.85.87-.51,2.18-1.1,3.5-1.1.9,0,1.69.28,2.31.76.48-.65,1.36-3.13,1.36-6.14h2.81c0,3.88-1.28,7.77-2.85,8.67l-1.42.83c-.8.46-1.43.49-1.43.06v-.76c0-.84-1.28-.8-2.87.11-1.57.91-2.85,2.33-2.85,3.18v.76c0,.44-1.1,1.41-2.43,2.18l-71.8,41.46-7.77,4.48s-.01,0-.01.01c-1.01.56-2.32.86-3.64.86v-3.25c1.32,0,2.64-.28,3.66-.87Z"/>
  <path class="cls-24" d="m360.73,258.65l4.95-2.87,74.24-42.86c.03-.93.41-1.84,1.01-2.66.84-1.18,2.11-2.19,3.25-2.85.87-.51,2.18-1.1,3.5-1.1.9,0,1.69.28,2.31.76.48-.65,1.36-3.13,1.36-6.14h2.81c0,3.88-1.28,7.77-2.85,8.67l-1.42.83c-.8.46-1.43.49-1.43.06v-.76c0-.84-1.28-.8-2.87.11-1.57.91-2.85,2.33-2.85,3.18v.76c0,.44-1.1,1.41-2.43,2.18l-71.8,41.46-7.77,4.48s-.01,0-.01.01c-1.01.56-2.32.86-3.64.86v-3.25c1.32,0,2.64-.28,3.66-.87Z"/>
  <path class="cls-35" d="m360.7,236.69s.01-.01.03-.01l4.95-2.87,57.04-32.91,18.21-10.52c1.29-.76,2.35-1.03,2.42-.63.01.01.01.03.01.04v.83c0,.91,1.28.91,2.85,0,1.55-.89,2.22-1.98,2.25-2.87v-.9c0-.46.18-.94.42-1.07.11-.07.27-.15.42-.24.25-.14.56-.32.9-.52.34-.2.72-.42,1.11-.65.52-.29,1-.24,1.42.13.06.03.1.07.14.13.1.1.18.21.25.34.06.06.08.11.13.18.13.21.24.45.32.7.1.25.18.53.25.82.07.31.13.62.18.96.04.18.06.38.07.58.01.15.03.3.04.46.03.35.04.72.04,1.1v11.16h-2.81v-11.16c0-.3-.01-.59-.03-.87l-.07-.7s0-.04-.01-.07c-.25,2.24-2.39,4.23-4.25,5.29-.83.49-2.11,1.07-3.43,1.07-.98,0-1.87-.35-2.52-.93l-.25.14c-.17.1-.32.2-.49.3l-71.8,41.46-7.77,4.49s-.01,0-.01.01c-.01.01-.03.01-.06.03-1,.55-2.29.83-3.58.83v-3.24c1.45,0,2.61-.32,3.63-.86Z"/>
  <path class="cls-24" d="m360.12,236.69s.01-.01.03-.01l4.95-2.87,57.04-32.91,18.21-10.52c1.29-.76,2.35-1.03,2.42-.63.01.01.01.03.01.04v.83c0,.91,1.28.91,2.85,0,1.55-.89,2.22-1.98,2.25-2.87v-.9c0-.46.18-.94.42-1.07.11-.07.27-.15.42-.24.25-.14.56-.32.9-.52.34-.2.72-.42,1.11-.65.52-.29,1-.24,1.42.13.06.03.1.07.14.13.1.1.18.21.25.34.06.06.08.11.13.18.13.21.24.45.32.7.1.25.18.53.25.82.07.31.13.62.18.96.04.18.06.38.07.58.01.15.03.3.04.46.03.35.04.72.04,1.1v11.16h-2.81v-11.16c0-.3-.01-.59-.03-.87l-.07-.7s0-.04-.01-.07c-.25,2.24-2.39,4.23-4.25,5.29-.83.49-2.11,1.07-3.43,1.07-.98,0-1.87-.35-2.52-.93l-.25.14c-.17.1-.32.2-.49.3l-71.8,41.46-7.77,4.49s-.01,0-.01.01c-.01.01-.03.01-.06.03-1,.55-2.29.83-3.58.83v-3.24c1.45,0,2.61-.32,3.63-.86Z"/>
  <path class="cls-37" d="m233.6,166.2v3.3c0,.76.48,1.5,1.45,2.08l.06.03,110.56,63.83,7.76,4.48h0s.01,0,.01.01c1.01.56,2.32.86,3.64.86v-3.25c-1.32,0-2.64-.28-3.66-.87l-4.93-2.85h-.01l-113.37-65.47c-1.07-.62-1.5-1.35-1.5-2.15Z"/>
  <path class="cls-26" d="m234.52,166.2v3.3c0,.76.48,1.5,1.45,2.08l.06.03,110.56,63.83,7.76,4.48h0s.01,0,.01.01c1.01.56,2.32.86,3.64.86v-3.25c-1.32,0-2.64-.28-3.66-.87l-4.93-2.85h-.01l-113.37-65.47c-1.07-.62-1.5-1.35-1.5-2.15Z"/>
  <path class="cls-41" d="m233.6,188.17v3.3c0,.76.48,1.5,1.45,2.08l.06.03,110.56,63.83,7.76,4.48h0s.01,0,.01.01c1.01.56,2.32.86,3.64.86v-3.25c-1.32,0-2.64-.28-3.66-.87l-4.93-2.85h-.01l-113.37-65.47c-1.07-.62-1.5-1.35-1.5-2.15Z"/>
  <path class="cls-26" d="m233.6,188.17v3.3c0,.76.48,1.5,1.45,2.08l.06.03,110.56,63.83,7.76,4.48h0s.01,0,.01.01c1.01.56,2.32.86,3.64.86v-3.25c-1.32,0-2.64-.28-3.66-.87l-4.93-2.85h-.01l-113.37-65.47c-1.07-.62-1.5-1.35-1.5-2.15Z"/>
  <polygon class="cls-37" points="462.19 167.6 366.3 222.22 238.79 149.04 334.66 94.42 462.19 167.6"/>
  <polygon class="cls-15" points="463.91 166.92 368.02 221.54 240.51 148.36 336.38 93.74 463.91 166.92"/>
  <path class="cls-42" d="m370.1,193.08c-3.95,2.27-7.15,7.78-7.15,12.32v14.39c0,4.54,3.2,6.37,7.15,4.11l92.07-52.73v-3.56s-91.09,51.9-91.09,51.9c-2.37,1.36-4.29.26-4.29-2.46l.07-13.33c0-2.72,1.93-6.03,4.3-7.39l91.01-51.92v-4.04l-92.08,52.72Z"/>
  <path class="cls-22" d="m366.82,217.52l93.15-53.34c-1.94-5.52-1.8-11.96.4-19.31l-92.68,52.89s-1.41,4.66-.88,19.76Z"/>
  <path class="cls-2" d="m400.27,266.28c-3.95,2.27-7.15,7.78-7.15,12.32v14.39c0,4.54,3.2,6.37,7.15,4.11l92.07-52.73v-3.56s-91.09,51.9-91.09,51.9c-2.37,1.36-4.29.26-4.29-2.46l.07-13.33c0-2.72,1.93-6.03,4.3-7.39l91.01-51.92v-4.04l-92.08,52.72Z"/>
  <path class="cls-37" d="m462.18,140.36l-127.52-73.18-92.07,52.72c-3.95,2.27-7.15,7.78-7.15,12.32v14.39c0,2.26.79,3.85,2.1,4.6l127.52,73.18c-1.3-.75-2.09-2.34-2.1-4.6v-14.4c-.01-4.53,3.19-10.05,7.14-12.32l92.08-52.71Z"/>
  <path class="cls-11" d="m462.18,140.36l-127.52-73.18-92.07,52.72c-3.95,2.27-7.15,7.78-7.15,12.32v14.39c0,2.26.79,3.85,2.1,4.6l127.52,73.18c-1.3-.75-2.09-2.34-2.1-4.6v-14.4c-.01-4.53,3.19-10.05,7.14-12.32l92.08-52.71Z"/>
  <path class="cls-37" d="m365.04,198.38c-1.29,2.23-2.09,4.74-2.09,7.01v14.4c.02,2.26.81,3.85,2.11,4.6l-127.52-73.18c-1.3-.75-2.09-2.34-2.1-4.6v-14.39c0-2.27.8-4.78,2.1-7.01l127.5,73.17Z"/>
  <path class="cls-21" d="m364.85,198.38c-1.29,2.23-2.09,4.74-2.09,7.01v14.4c.02,2.26.81,3.85,2.11,4.6l-127.52-73.18c-1.3-.75-2.09-2.34-2.1-4.6v-14.39c0-2.27.8-4.78,2.1-7.01l127.5,73.17Z"/>
  <g>
    <path class="cls-12" d="m254.34,134.75c-2.32,10.07-2.29,18.77,0,26.16l5.92,3.42c-2.28-7.39-2.32-16.09,0-26.16l-5.92-3.42Z"/>
    <path class="cls-12" d="m339.04,183.65c-2.32,10.07-2.29,18.77,0,26.16l5.92,3.42c-2.28-7.39-2.32-16.09,0-26.16l-5.92-3.42Z"/>
  </g>
  <path class="cls-28" d="m9.52,278.12c-2.66-1.53-2.66-4.03,0-5.57l135.81-78.91,176.78,102.05-136.26,78.67c-2.66,1.53-6.96,1.53-9.62,0l-100.96-58.29-16.9,3.19c-1.08.2-2.2.01-3.15-.53l-41.9-24.14c-2.3-1.32-3-4.3-1.55-6.52l4.43-6.1-6.67-3.85Z"/>
  <path class="cls-33" d="m6.54,280.04c-2.66-1.53-2.66-4.03,0-5.57l135.81-78.91,176.78,102.05-136.26,78.67c-2.66,1.53-6.96,1.53-9.62,0l-100.96-58.29-16.9,3.19c-1.08.2-2.2.01-3.15-.53l-41.9-24.14c-2.3-1.32-3-4.3-1.55-6.52l4.43-6.1-6.67-3.85Z"/>
  <polygon class="cls-10" points="150.9 196.83 316.11 292.24 181.02 369.64 16.76 274.77 150.9 196.83"/>
  <path class="cls-8" d="m322.29,295.81l-122.99,70.72c-2.51,1.45-6.71,1.38-9.36-.16L23.24,270.13c-2.66-1.53-2.77-3.96-.26-5.41l122.54-70.96,176.77,102.05Z"/>
  <path class="cls-25" d="m366.66,313.59h0s0,0,0,0c0,0-.01,0-.02,0l-40.95,23.53s0,0,0,0l-.06.03h0c-1,.55-1.67,1.75-1.76,3.49-.18,3.55,2.09,7.99,5.08,9.92,1.5.97,2.89,1.12,3.92.58l43.01-19.09h0c1.71-.79,3.22-2.05,4.32-3.74,3.12-4.78,1.77-11.18-3.01-14.29-3.28-2.14-7.33-2.18-10.55-.44Z"/>
  <path class="cls-19" d="m332.88,351.15l43.01-19.09c1.71-.79,3.22-2.05,4.32-3.74,2.99-4.59,1.86-10.67-2.47-13.9,2.41,2.51,1.77,8.78-5.29,12.48-7.09,3.72-33.54,15.68-45.58,21.8.63.74,1.33,1.38,2.08,1.87,1.5.97,2.89,1.12,3.92.58Z"/>
  <path class="cls-8" d="m323.87,340.67c-.17,3.55,2.11,7.99,5.09,9.91,1.45.93,2.79,1.1,3.81.63.75-.35,3.65-1.63,4.43-1.98,1.14-.51,1.89-1.79,1.99-3.69.18-3.66-2.17-8.24-5.25-10.22-1.59-1.03-3.06-1.16-4.14-.54-.74.43-4.17,2.4-4.17,2.4-1.01.54-1.67,1.76-1.75,3.51Z"/>
  <path class="cls-8" d="m323.87,340.67c.17-3.55,2.74-4.87,5.72-2.94,2.99,1.92,5.27,6.36,5.09,9.91-.17,3.55-2.74,4.87-5.72,2.94-2.99-1.92-5.27-6.36-5.09-9.91Z"/>
  <path class="cls-13" d="m323.49,340.44c.17-3.55,2.74-4.87,5.72-2.94,2.99,1.92,5.27,6.36,5.09,9.91-.17,3.55-2.74,4.87-5.72,2.94-2.99-1.92-5.27-6.36-5.09-9.91Z"/>
  <g>
    <path class="cls-19" d="m313.17,356.6c-1.99-1.26-3.52-4.19-3.42-6.54.05-1.17.49-1.98,1.17-2.34h0s0,0,0,0h0s15.11-7.87,15.11-7.87c0,0,0,0,.01,0h0s0,0,0,0c.68-.35,1.6-.26,2.59.37,1.99,1.26,3.52,4.19,3.42,6.54-.05,1.18-.5,1.99-1.18,2.34h0l-15.1,7.87h0c-.68.36-1.61.27-2.61-.36Z"/>
    <path class="cls-43" d="m315.78,356.96c-.68.36-1.61.27-2.61-.36-.75-.47-1.43-1.19-1.99-2.02l20.36-10.6c.36.92.55,1.89.51,2.77-.05,1.18-.5,1.99-1.18,2.34l-15.1,7.87h0Z"/>
  </g>
  <path class="cls-8" d="m219.26,359.95v14.67c0,7.96,5.26,15.93,15.78,22,21.05,12.15,55.17,12.15,76.22,0,10.52-6.08,15.78-14.04,15.79-22v-14.67h0c0-7.96-5.26-15.93-15.78-22-21.05-12.15-55.17-12.15-76.22,0-10.52,6.08-15.78,14.04-15.78,22h0Zm102.57,0c0,6.37-4.68,12.58-13.18,17.49-9.4,5.43-22.01,8.42-35.5,8.42-13.49,0-26.1-2.99-35.5-8.42-8.5-4.91-13.18-11.12-13.18-17.49s4.68-12.58,13.18-17.49c9.4-5.43,22.01-8.42,35.5-8.42,13.49,0,26.1,2.99,35.5,8.42,8.5,4.91,13.18,11.12,13.18,17.49Z"/>
  <path class="cls-13" d="m219.26,357.9v14.67c0,7.96,5.26,15.93,15.78,22,21.05,12.15,55.17,12.15,76.22,0,10.52-6.08,15.78-14.04,15.79-22v-14.67h0c0-7.96-5.26-15.93-15.78-22-21.05-12.15-55.17-12.15-76.22,0-10.52,6.08-15.78,14.04-15.78,22h0Zm102.57,0c0,6.37-4.68,12.58-13.18,17.49-9.4,5.43-22.01,8.42-35.5,8.42-13.49,0-26.1-2.99-35.5-8.42-8.5-4.91-13.18-11.12-13.18-17.49s4.68-12.58,13.18-17.49c9.4-5.43,22.01-8.42,35.5-8.42,13.49,0,26.1,2.99,35.5,8.42,8.5,4.91,13.18,11.12,13.18,17.49Z"/>
  <path class="cls-1" d="m319.3,351.92c1.66,2.59,2.53,5.3,2.53,8.04,0,6.37-4.68,12.58-13.18,17.49-3.95,2.28-8.47,4.12-13.38,5.5v20.05c5.79-1.51,11.23-3.63,15.99-6.37,10.52-6.08,15.78-14.04,15.79-22v-14.67c0-3.67-1.13-7.34-3.37-10.83l-4.37,2.79Z"/>
  <path class="cls-7" d="m219.26,359.95h0s0,14.67,0,14.67c0,7.96,5.26,15.93,15.78,22,2.87,1.66,5.98,3.08,9.27,4.28l.08-20.21c-2.39-.96-4.65-2.04-6.75-3.25-8.5-4.91-13.18-11.12-13.18-17.49,0-2.12.53-4.22,1.53-6.26l-4.07-3.41c-1.77,3.14-2.67,6.4-2.67,9.67Z"/>
  <path class="cls-8" d="m311.27,337.95c-21.05-12.15-55.17-12.15-76.22,0-21.05,12.15-21.05,31.85,0,44,21.05,12.15,55.17,12.15,76.22,0,21.05-12.15,21.05-31.85,0-44Zm-2.61,39.49c-9.4,5.43-22.01,8.42-35.5,8.42-13.49,0-26.1-2.99-35.5-8.42-8.5-4.91-13.18-11.12-13.18-17.49s4.68-12.58,13.18-17.49c9.4-5.43,22.01-8.42,35.5-8.42,13.5,0,26.1,2.99,35.5,8.42,8.5,4.91,13.18,11.12,13.18,17.49s-4.68,12.58-13.18,17.49Z"/>
  <g class="cls-17">
    <path class="cls-12" d="m311.27,337.95c-21.05-12.15-55.17-12.15-76.22,0-21.05,12.15-21.05,31.85,0,44,21.05,12.15,55.17,12.15,76.22,0,21.05-12.15,21.05-31.85,0-44Zm-2.61,39.49c-9.4,5.43-22.01,8.42-35.5,8.42-13.49,0-26.1-2.99-35.5-8.42-8.5-4.91-13.18-11.12-13.18-17.49s4.68-12.58,13.18-17.49c9.4-5.43,22.01-8.42,35.5-8.42,13.5,0,26.1,2.99,35.5,8.42,8.5,4.91,13.18,11.12,13.18,17.49s-4.68,12.58-13.18,17.49Z"/>
  </g>
  <path class="cls-1" d="m225.51,346.93c-2.74,2.93-4.97,6.46-5.94,10.41-.99,3.94-.56,8.2,1.05,11.93,1.59,3.76,4.24,6.96,7.24,9.66,1.53,1.33,3.14,2.56,4.83,3.66.85.54,1.71,1.09,2.59,1.57l2.68,1.41c.88.5,1.82.87,2.75,1.27.93.39,1.85.8,2.79,1.18l2.86.98,1.43.49c.48.16.97.27,1.46.41,7.77,2.19,15.83,3.22,23.89,3.27,8.06-.05,16.13-1.08,23.89-3.27.49-.14.98-.25,1.46-.41l1.43-.49,2.86-.98c.94-.38,1.86-.79,2.79-1.18.93-.4,1.87-.77,2.75-1.27l2.68-1.41c.89-.48,1.74-1.02,2.6-1.56,1.69-1.11,3.3-2.34,4.83-3.66,3-2.7,5.65-5.9,7.24-9.66,1.61-3.73,2.04-7.99,1.05-11.93-.97-3.96-3.2-7.48-5.94-10.41-2.77-2.93-6.06-5.31-9.54-7.3,3.44,2.05,6.69,4.48,9.39,7.44,2.67,2.96,4.81,6.48,5.69,10.37.92,3.87.46,8-1.14,11.63-1.58,3.65-4.21,6.76-7.18,9.38-3.02,2.59-6.41,4.74-10.01,6.47-.87.49-1.8.86-2.72,1.25-.92.38-1.83.79-2.76,1.15l-2.84.96-1.42.48c-.48.15-.96.26-1.44.4-7.69,2.15-15.7,3.14-23.68,3.17-7.99-.02-15.99-1.02-23.68-3.17-.48-.13-.97-.24-1.44-.4l-1.42-.48-2.84-.96c-.93-.37-1.84-.77-2.76-1.15-.92-.39-1.85-.76-2.72-1.25-3.59-1.73-6.99-3.87-10.01-6.47-2.97-2.62-5.6-5.73-7.18-9.38-1.6-3.62-2.06-7.76-1.14-11.63.88-3.89,3.02-7.41,5.69-10.37,2.7-2.96,5.95-5.39,9.39-7.44-3.48,1.99-6.77,4.37-9.54,7.3Z"/>
  <g>
    <path class="cls-8" d="m321.84,359.95c0,2.5-.72,4.96-2.11,7.34-2.14-3.7-5.9-7.17-11.08-10.15-9.39-5.43-22-8.42-35.5-8.42-13.49,0-26.1,2.99-35.49,8.42-5.18,2.98-8.94,6.45-11.09,10.15-1.38-2.38-2.1-4.84-2.1-7.34,0-6.37,4.68-12.58,13.19-17.49,9.39-5.42,22-8.41,35.49-8.41s26.11,2.99,35.5,8.41c8.51,4.91,13.19,11.12,13.19,17.49Z"/>
    <path class="cls-7" d="m321.84,357.9c0,2.5-.72,4.96-2.11,7.34-2.14-3.7-5.9-7.17-11.08-10.15-9.39-5.43-22-8.42-35.5-8.42-13.49,0-26.1,2.99-35.49,8.42-5.18,2.98-8.94,6.45-11.09,10.15-1.38-2.38-2.1-4.84-2.1-7.34,0-6.37,4.68-12.58,13.19-17.49,9.39-5.42,22-8.41,35.49-8.41s26.11,2.99,35.5,8.41c8.51,4.91,13.19,11.12,13.19,17.49Z"/>
    <path class="cls-3" d="m237.66,342.46c-8.51,4.91-13.19,11.12-13.19,17.49,0,2.5.72,4.96,2.1,7.34,2.15-3.7,5.91-7.17,11.09-10.15,2.11-1.22,4.4-2.31,6.81-3.28-2.06.79-8.36,2.82-6.06-3.19,2.73-7.14,16.07-14.87,25.87-16.16v-.02c-10.08,1.02-19.32,3.75-26.61,7.96Z"/>
  </g>
  <path class="cls-14" d="m449.04,366.2c-9.4-5.43-22.01-8.42-35.5-8.42-13.49,0-26.1,2.99-35.5,8.42-7.01,4.05-11.42,8.99-12.75,14.17,1.33,5.18,5.73,10.12,12.75,14.17,9.4,5.43,22.01,8.42,35.5,8.42,13.5,0,26.1-2.99,35.5-8.42,7.01-4.05,11.42-8.99,12.75-14.17-1.33-5.18-5.73-10.12-12.75-14.17Z"/>
  <path id="Shadow-4" data-name="Shadow" class="cls-26" d="m174.77,399.49l-9.44-10.73h0s-.01,0-.01,0h0l-71.11-41.19s0,0,0,0l-2-1.16-3.26-1.89-.22-.13s.05.02.08.03l-3.14-1.8s0,0,0-.02l-12.83-7.39c-2.48-1.69-6.19,1.74-7.64,5.2,0,0,0,0,0,0-.23.54-.4,1.09-.5,1.61-.28,1.44-.04,2.74,1.03,3.47l10.46,6.03,2.84,1.64s.01.02.02.02l2.35,1.35.22.12,2.71,1.57h0s.07.06.11.09l2.28,1.29,72.32,41.89s0,0,0,0c0,0,0,0,0,0l13.77,2.72,3.75.74c.19.04.36-.02.47-.13.19-.18.25-.51.04-.75l-2.29-2.6Z"/>
  <path class="cls-25" d="m77.23,346.97l1.29.74,1.55.9,80.74,46.74c-.48-1.08-.1-3.24,1-5.31,1.28-2.41,3.25-4.32,4.67-4.39l-80.33-46.5-2.97-1.7c1.86,1.21-4.07,10.72-5.95,9.53Z"/>
  <path class="cls-39" d="m86.01,339.06l-2.87-1.64c-.82-.5-2.37.97-3.73,2.91-1.81,2.58-3.28,5.99-2.2,6.66l2.12,1.22.76.42c-1.08-.67.38-4.08,2.19-6.66,1.3-1.86,2.79-3.29,3.63-2.94h0s.06.02.09.04Z"/>
  <path class="cls-40" d="m85.29,338.65c-1.9-1.17-7.81,8.38-5.92,9.56l2.87,1.65c-1.9-1.17,4.02-10.73,5.92-9.56l-2.87-1.65Z"/>
  <path class="cls-39" d="m90.9,341.88l-2.83-1.63c-1.85-1.17-7.66,8-6.08,9.46.02.03.06.05.1.08l2.87,1.62c-1.86-1.21,4.07-10.72,5.95-9.53Z"/>
  <path class="cls-37" d="m83.18,337.42v.02s-.04-.02-.04-.02c-.81-.52-2.36.96-3.72,2.91-1.79,2.53-3.25,5.87-2.24,6.61l-11.98-6.89c-.96-.66-1.18-1.83-.93-3.13.67-3.49,4.75-7.93,7.34-6.16l11.58,6.66Z"/>
  <g>
    <path class="cls-27" d="m174.12,395.79c-.99,1.34-.89,2-.89,2l-12.43-2.45c-1.23-1.88-.42-4.94,1.28-7.12l.54.31,11.49,7.26Z"/>
    <path class="cls-19" d="m176.61,398.46l-3.38-.67s-.15-.65.89-2l2.95,1.86h0c.19.22.14.51-.03.68-.11.1-.26.16-.43.12Z"/>
    <path class="cls-44" d="m166.46,385.64h0s0,0,0,0l8.52,9.67c-.33.06-.66.23-.88.48l-11.49-7.26-.54-.31c1.16-1.49,2.75-2.57,4.38-2.58Z"/>
    <path class="cls-25" d="m174.12,395.79c.23-.34.72-.51.88-.48l2.07,2.35-2.95-1.86Z"/>
  </g>
  <path class="cls-26" d="m162.09,388.23l-96.62-54.21c-.59.95-1.03,1.96-1.21,2.91-.26,1.3-.03,2.46.93,3.13l12.03,6.92,1.29.74,1.55.9,80.74,46.74c-1.51-2.34.15-5.79,1.28-7.12Z"/>
  <path class="cls-8" d="m257.23.43l-52.73,30.42c-.98.57-1.78,1.95-1.78,3.09v62.49c0,1.14.8,2.51,1.79,3.07l6.27,3.56c.99.56,2.59.55,3.58-.02l52.74-30.42c.98-.57,1.78-1.95,1.78-3.09V7.05c0-1.14-.8-2.51-1.79-3.07l-6.27-3.56c-.99-.56-2.59-.55-3.58.02Z"/>
  <path class="cls-5" d="m266.41,6.44l-52.74,30.42c-.98.57-1.78,1.95-1.78,3.09v62.49c0,1.14.8,1.6,1.78,1.03l20.18-11.64,3.71,10.28c.71,1.63,3.07,1.51,3.61-.18l4.93-17.16,20.31-11.72c.98-.57,1.78-1.95,1.78-3.09V7.47c0-1.14-.8-1.6-1.78-1.03Z"/>
  <path class="cls-9" d="m268.84,6.73c-.14-.9-.87-1.22-1.76-.71l-52.73,30.42c-.49.29-.94.77-1.26,1.33l-9.82-5.65c.32-.54.75-1,1.23-1.27L257.23.43c.98-.57,2.58-.58,3.57-.02l6.27,3.56c.9.51,1.65,1.69,1.77,2.75Z"/>
  <path id="Check" class="cls-12" d="m253.67,28.8c-1.99-.83-4.29.1-5.12,2.09l-14.78,35.16-3.52-3.42c-1.54-1.5-4.02-1.47-5.53.08-1.5,1.54-1.46,4.02.08,5.53l7.63,7.41c.73.71,1.7,1.1,2.72,1.1.26,0,.52-.02.78-.08,1.27-.26,2.33-1.13,2.82-2.32l16.99-40.44c.83-1.99-.1-4.29-2.09-5.12Z"/>
  <g id="Sheets">
    <polygon id="Shadow-5" data-name="Shadow" class="cls-33" points="17.85 245.24 155.04 166.03 338.12 271.94 200.93 351.15 17.85 245.24"/>
    <g id="Sheets-2" data-name="Sheets">
      <g id="Character">
        <g>
          <polygon class="cls-30" points="29.59 244.71 200.94 343.83 200.94 281.82 29.59 182.7 29.59 244.71"/>
          <polygon class="cls-39" points="326.38 271.4 200.94 343.83 200.94 281.82 326.38 209.4 326.38 271.4"/>
          <polygon class="cls-22" points="29.59 182.7 155.04 110.28 326.38 209.4 200.94 281.82 29.59 182.7"/>
        </g>
      </g>
      <polygon class="cls-38" points="112.73 250.82 200.94 299.3 252.93 269.28 200.94 302.4 112.73 250.82"/>
      <polygon class="cls-38" points="62.28 248.55 200.94 326.56 288.28 273.99 200.94 329.59 62.28 248.55"/>
      <path class="cls-38" d="m43.23,199.66s-2.87,16.19-1.43,24.38c0,0,22.69-.56,60.99,10.01l-59.57-34.39Z"/>
      <polygon class="cls-12" points="43.23 199.66 102.8 234.05 36.89 215.02 43.23 199.66"/>
      <path class="cls-38" d="m87.29,246.59l65.3,60.04s1.81-8.25,14.35-14.05l-79.65-45.99Z"/>
      <polygon class="cls-16" points="87.29 246.59 148.61 298.23 166.93 292.58 87.29 246.59"/>
      <path class="cls-38" d="m303.89,232.8c-.34-.53-.55-.81-.55-.81l-41.27,23.83,46.45-3.81c1.6-8.62-2.99-16.67-4.63-19.2Z"/>
      <polygon class="cls-16" points="262.07 255.81 303.33 231.99 317.07 239.23 262.07 255.81"/>
    </g>
    <g>
      <polygon class="cls-30" points="29.59 182.7 200.94 277.89 326.38 209.4 200.94 275.33 29.59 182.7"/>
      <g>
        <polygon class="cls-12" points="30.51 182.69 155.04 110.8 325.46 209.38 200.94 274.82 30.51 182.69"/>
        <path class="cls-32" d="m155.04,111.31l169.49,98.05-123.58,64.95L31.43,182.67l123.61-71.36m0-1.04L29.59,182.7l171.35,92.63,125.45-65.93-171.35-99.12h0Z"/>
      </g>
    </g>
  </g>
  <g>
    <path class="cls-25" d="m78.56,169.88c1.02-.59,2.03-.9,3.04-.93s1.93.19,2.77.68c.6.34.97.72,1.12,1.12.15.4.06.81-.27,1.24l4.72.77c.07.01.13.03.17.06.07.04.11.09.11.16s-.04.11-.11.16l-1.04.6c-.16.09-.32.14-.48.14-.16,0-.28,0-.38-.03l-4.46-.72-1.63.94,2.85,1.65c.09.05.13.12.13.19,0,.08-.04.14-.13.19l-.99.57c-.09.05-.2.08-.33.08-.13,0-.24-.03-.33-.08l-7.91-4.57c-.09-.05-.14-.12-.13-.19,0-.08.04-.14.13-.19l3.16-1.83Zm2.02,3.29l1.78-1.03c.47-.27.76-.53.87-.79.11-.25-.06-.51-.52-.78-.46-.26-.9-.36-1.33-.29-.43.07-.88.24-1.35.51l-1.78,1.03,2.33,1.34Z"/>
    <path class="cls-25" d="m96.02,167.93c.09-.05.2-.08.33-.08s.24.03.33.08l.87.5c.09.05.14.12.13.19,0,.08-.04.14-.13.19l-5.38,3.1c-.09.05-.2.08-.33.08-.13,0-.24-.03-.33-.08l-7.91-4.57c-.09-.05-.13-.12-.13-.19,0-.08.04-.14.13-.19l5.28-3.05c.09-.05.2-.08.33-.08.13,0,.24.03.33.08l.87.5c.09.05.13.12.13.19s-.05.14-.13.19l-3.96,2.28,1.95,1.12,3.69-2.13c.09-.05.2-.08.33-.08.13,0,.24.03.33.08l.87.5c.09.05.13.12.13.19s-.05.14-.13.19l-3.69,2.13,2.03,1.17,4.05-2.34Z"/>
    <path class="cls-25" d="m93.65,161.02c.55-.32,1.1-.55,1.67-.71.56-.16,1.09-.25,1.59-.28.5-.03.95-.01,1.36.06.41.07.74.17.99.3.11.05.16.12.15.19,0,.08-.06.14-.15.19l-.86.5c-.14.08-.27.12-.39.13-.12,0-.26,0-.4-.01-.33-.05-.69-.04-1.09.01-.4.06-.84.23-1.34.51-.21.12-.39.25-.54.39-.15.14-.25.27-.31.4-.06.13-.06.26-.02.38.04.12.14.22.29.31.19.11.38.17.58.2.2.02.43,0,.7-.05.27-.06.59-.15.97-.28.38-.13.84-.3,1.38-.5.6-.22,1.14-.39,1.64-.52.5-.12.96-.19,1.38-.21.43-.01.82.02,1.2.11.37.09.72.23,1.06.42.37.21.63.46.78.73.15.28.19.57.11.87-.08.3-.27.62-.58.95-.31.33-.74.65-1.29.97-.46.26-.95.48-1.48.66-.53.18-1.06.3-1.59.36-.53.07-1.04.07-1.53.01-.49-.06-.93-.18-1.31-.37-.11-.05-.16-.12-.15-.19,0-.08.06-.14.15-.19l.86-.5c.14-.08.27-.13.39-.14.12-.01.26,0,.4.02.16.03.34.05.53.06.19.01.39,0,.61-.03.22-.03.46-.09.72-.18.26-.09.55-.22.86-.4.25-.14.46-.29.66-.44.19-.15.33-.3.42-.45.08-.15.12-.29.1-.42-.02-.13-.12-.26-.31-.36-.18-.1-.38-.16-.61-.16-.23,0-.5.04-.82.13-.31.09-.68.21-1.1.36-.42.16-.91.33-1.47.52-.51.18-.98.32-1.42.42-.44.1-.86.15-1.26.15-.4,0-.78-.04-1.14-.14-.36-.1-.73-.25-1.1-.46-.37-.21-.62-.46-.77-.73-.15-.27-.19-.56-.12-.85.07-.29.23-.59.5-.89.27-.3.63-.59,1.09-.85Z"/>
    <path class="cls-25" d="m111.52,158.98c.09-.05.2-.08.33-.08.13,0,.24.03.33.08l.87.5c.09.05.13.12.13.19,0,.08-.04.14-.13.19l-5.38,3.1c-.09.05-.2.08-.33.08-.13,0-.24-.03-.33-.08l-7.91-4.57c-.09-.05-.13-.12-.13-.19s.04-.14.13-.19l5.28-3.05c.09-.05.2-.08.33-.08s.24.03.33.08l.87.5c.09.05.13.12.13.19s-.04.14-.13.19l-3.96,2.28,1.95,1.12,3.69-2.13c.09-.05.2-.08.33-.08.13,0,.24.03.33.08l.87.5c.09.05.13.12.13.19s-.04.14-.13.19l-3.69,2.13,2.03,1.17,4.05-2.34Z"/>
    <path class="cls-25" d="m110.36,151.52c.13-.08.26-.11.4-.11.13,0,.29.03.48.08l10.74,2.74s.06.02.1.04c.09.05.14.12.13.19,0,.08-.04.14-.13.19l-.88.51c-.16.09-.31.14-.45.14-.13,0-.25-.02-.34-.04l-1.89-.48-3.87,2.24.83,1.09c.04.05.06.12.07.19,0,.08-.08.16-.24.26l-.88.51c-.09.05-.2.08-.33.08s-.24-.03-.33-.08c-.03-.02-.06-.04-.07-.06l-4.74-6.2c-.09-.11-.14-.2-.14-.28,0-.08.06-.15.19-.23l1.35-.78Zm6.05,2.72l-4.84-1.24,2.14,2.79,2.7-1.56Z"/>
    <path class="cls-25" d="m118.44,146.85c1.02-.59,2.03-.9,3.04-.93,1-.03,1.93.19,2.77.68.6.34.97.72,1.12,1.12.15.4.06.81-.27,1.24l4.72.77c.07.01.13.03.17.06.07.04.11.09.11.16s-.04.11-.11.16l-1.04.6c-.16.09-.32.14-.48.14-.15,0-.28,0-.38-.03l-4.46-.72-1.63.94,2.85,1.65c.09.05.13.12.13.19,0,.08-.04.14-.13.19l-.99.57c-.09.05-.2.08-.33.08-.13,0-.24-.03-.33-.08l-7.91-4.57c-.09-.05-.13-.12-.13-.19s.04-.14.13-.19l3.16-1.82Zm2.02,3.29l1.78-1.03c.46-.27.76-.53.87-.79.12-.25-.06-.51-.51-.78-.46-.26-.9-.36-1.33-.29-.43.07-.88.24-1.35.51l-1.78,1.03,2.33,1.34Z"/>
    <path class="cls-25" d="m134.29,144.46c-.09-.07-.13-.14-.11-.21.02-.07.07-.13.15-.18l.99-.57c.09-.05.2-.08.33-.08.13,0,.24.02.33.08.31.21.56.45.75.72.19.28.28.58.25.9-.02.33-.17.67-.45,1.03-.28.36-.74.72-1.37,1.09-.56.33-1.14.57-1.75.72-.6.15-1.2.23-1.8.23-.6,0-1.19-.07-1.78-.21-.58-.14-1.14-.35-1.66-.61-.33-.17-.68-.36-1.05-.58-.38-.22-.71-.42-1-.61-.46-.3-.81-.62-1.06-.96-.25-.34-.37-.68-.37-1.03,0-.35.14-.69.4-1.04.27-.35.68-.68,1.24-1.01.64-.37,1.27-.63,1.89-.79.62-.16,1.21-.25,1.78-.26.56-.01,1.09.04,1.57.15.48.11.9.26,1.25.43.11.05.15.12.15.19,0,.08-.06.14-.15.19l-.99.57c-.08.05-.19.08-.31.09-.13.01-.25,0-.37-.06-.19-.08-.4-.14-.65-.18-.24-.04-.51-.05-.78-.03-.28.02-.57.07-.89.17-.31.09-.63.23-.95.41-.32.18-.55.37-.69.57-.14.19-.21.38-.2.57,0,.19.08.37.22.55.14.18.33.35.57.51.29.19.63.39,1,.61s.73.41,1.05.58c.28.14.57.25.88.33.31.08.63.12.95.12.32,0,.65-.04.99-.12.34-.08.66-.21.98-.4.32-.18.56-.37.72-.55.16-.18.26-.35.29-.52.04-.16.02-.31-.04-.46-.07-.14-.17-.27-.31-.38Z"/>
    <path class="cls-25" d="m138.22,135.43c.09-.05.2-.08.33-.08.13,0,.24.03.33.08l7.91,4.57c.09.05.14.12.13.19,0,.08-.04.14-.13.19l-.99.57c-.09.05-.2.08-.33.08-.13,0-.24-.03-.33-.08l-3.23-1.87-3.7,2.14,3.23,1.87c.09.05.13.12.13.19s-.05.14-.13.19l-.99.57c-.09.05-.2.08-.33.08-.12,0-.24-.02-.34-.08l-7.91-4.57c-.09-.05-.13-.12-.13-.19s.04-.14.13-.19l.99-.57c.09-.05.2-.08.33-.08.13,0,.24.03.33.08l3.15,1.82,3.7-2.14-3.15-1.82c-.09-.05-.13-.12-.13-.19,0-.08.04-.14.13-.19l.99-.57Z"/>
  </g>
  <g class="cls-4">
    <polygon class="cls-36" points="149.55 141.66 86.11 178.29 87.84 179.29 151.28 142.66 149.55 141.66"/>
    <polygon class="cls-18" points="149.55 141.66 86.11 178.29 87.84 179.29 151.28 142.66 149.55 141.66"/>
  </g>
  <polygon class="cls-30" points="176.11 135.08 74.73 193.61 72.84 192.51 174.21 133.98 176.11 135.08"/>
  <polygon class="cls-30" points="180.62 137.69 79.25 196.21 77.36 195.12 178.73 136.59 180.62 137.69"/>
  <polygon class="cls-30" points="185.14 140.29 83.77 198.82 81.87 197.73 183.24 139.2 185.14 140.29"/>
  <polygon class="cls-30" points="218.97 159.83 117.6 218.36 115.71 217.26 217.08 158.73 218.97 159.83"/>
  <polygon class="cls-30" points="223.49 162.44 122.12 220.96 120.22 219.87 221.59 161.34 223.49 162.44"/>
  <polygon class="cls-30" points="228.01 165.04 126.63 223.57 124.74 222.48 226.11 163.95 228.01 165.04"/>
  <polygon class="cls-30" points="293.22 202.69 194.01 259.97 192.11 258.88 291.32 201.6 293.22 202.69"/>
  <polygon class="cls-30" points="297.74 205.3 198.52 262.58 196.63 261.49 295.84 204.21 297.74 205.3"/>
  <g>
    <polygon class="cls-31" points="104.37 196.68 92.21 203.7 87.41 200.92 99.57 193.9 104.37 196.68"/>
    <polygon class="cls-31" points="119.24 188.09 107.08 195.11 102.28 192.34 114.44 185.32 119.24 188.09"/>
    <polygon class="cls-31" points="134.11 179.51 121.95 186.53 117.15 183.76 129.31 176.73 134.11 179.51"/>
    <polygon class="cls-31" points="148.98 170.92 136.82 177.94 132.02 175.17 144.18 168.15 148.98 170.92"/>
    <polygon class="cls-31" points="163.85 162.34 151.68 169.36 146.88 166.59 159.05 159.57 163.85 162.34"/>
    <polygon class="cls-31" points="178.71 153.75 166.55 160.77 161.75 158 173.91 150.98 178.71 153.75"/>
  </g>
  <g>
    <polygon class="cls-10" points="110.65 200.3 98.49 207.32 93.69 204.55 105.85 197.53 110.65 200.3"/>
    <polygon class="cls-30" points="125.52 191.71 113.36 198.74 108.56 195.96 120.72 188.94 125.52 191.71"/>
    <polygon class="cls-10" points="140.39 183.13 128.22 190.15 123.42 187.38 135.58 180.36 140.39 183.13"/>
    <polygon class="cls-10" points="155.25 174.55 143.09 181.57 138.29 178.8 150.45 171.77 155.25 174.55"/>
    <polygon class="cls-10" points="170.12 165.96 157.96 172.98 153.16 170.21 165.32 163.19 170.12 165.96"/>
    <polygon class="cls-30" points="184.99 157.38 172.83 164.4 168.03 161.63 180.19 154.61 184.99 157.38"/>
    <polygon class="cls-10" points="199.86 148.79 187.7 155.81 182.9 153.04 195.06 146.02 199.86 148.79"/>
  </g>
  <g>
    <polygon class="cls-10" points="116.92 203.92 104.76 210.94 99.96 208.17 112.12 201.15 116.92 203.92"/>
    <polygon class="cls-10" points="131.79 195.34 119.63 202.36 114.83 199.59 126.99 192.57 131.79 195.34"/>
    <polygon class="cls-10" points="146.66 186.75 134.5 193.78 129.7 191 141.86 183.98 146.66 186.75"/>
    <polygon class="cls-30" points="161.53 178.17 149.37 185.19 144.57 182.42 156.73 175.4 161.53 178.17"/>
    <polygon class="cls-10" points="176.4 169.59 164.24 176.61 159.44 173.84 171.6 166.81 176.4 169.59"/>
    <polygon class="cls-10" points="191.27 161 179.11 168.02 174.31 165.25 186.47 158.23 191.27 161"/>
    <polygon class="cls-10" points="206.14 152.42 193.98 159.44 189.18 156.67 201.34 149.65 206.14 152.42"/>
  </g>
  <g>
    <polygon class="cls-10" points="123.2 207.55 111.04 214.57 106.24 211.8 118.4 204.78 123.2 207.55"/>
    <polygon class="cls-30" points="138.07 198.96 125.91 205.98 121.11 203.21 133.27 196.19 138.07 198.96"/>
    <polygon class="cls-10" points="152.94 190.38 140.78 197.4 135.98 194.63 148.14 187.61 152.94 190.38"/>
    <polygon class="cls-10" points="167.81 181.79 155.65 188.82 150.85 186.04 163.01 179.02 167.81 181.79"/>
    <polygon class="cls-30" points="182.68 173.21 170.52 180.23 165.72 177.46 177.88 170.44 182.68 173.21"/>
    <polygon class="cls-10" points="197.55 164.63 185.39 171.65 180.59 168.87 192.75 161.85 197.55 164.63"/>
    <polygon class="cls-10" points="212.41 156.04 200.25 163.06 195.45 160.29 207.61 153.27 212.41 156.04"/>
  </g>
  <g>
    <g>
      <polygon class="cls-8" points="104.37 196.68 92.21 203.7 87.41 200.92 99.57 193.9 104.37 196.68"/>
      <polygon class="cls-8" points="119.24 188.09 107.08 195.11 102.28 192.34 114.44 185.32 119.24 188.09"/>
      <polygon class="cls-8" points="134.11 179.51 121.95 186.53 117.15 183.76 129.31 176.73 134.11 179.51"/>
      <polygon class="cls-8" points="148.98 170.92 136.82 177.94 132.02 175.17 144.18 168.15 148.98 170.92"/>
      <polygon class="cls-8" points="163.85 162.34 151.68 169.36 146.88 166.59 159.05 159.57 163.85 162.34"/>
      <polygon class="cls-8" points="178.71 153.75 166.55 160.77 161.75 158 173.91 150.98 178.71 153.75"/>
      <polygon class="cls-8" points="193.58 145.17 181.42 152.19 176.62 149.42 188.78 142.4 193.58 145.17"/>
    </g>
    <g class="cls-24">
      <polygon class="cls-8" points="104.37 196.68 92.21 203.7 87.41 200.92 99.57 193.9 104.37 196.68"/>
      <polygon class="cls-8" points="119.24 188.09 107.08 195.11 102.28 192.34 114.44 185.32 119.24 188.09"/>
      <polygon class="cls-8" points="134.11 179.51 121.95 186.53 117.15 183.76 129.31 176.73 134.11 179.51"/>
      <polygon class="cls-8" points="148.98 170.92 136.82 177.94 132.02 175.17 144.18 168.15 148.98 170.92"/>
      <polygon class="cls-8" points="163.85 162.34 151.68 169.36 146.88 166.59 159.05 159.57 163.85 162.34"/>
      <polygon class="cls-8" points="178.71 153.75 166.55 160.77 161.75 158 173.91 150.98 178.71 153.75"/>
      <polygon class="cls-8" points="193.58 145.17 181.42 152.19 176.62 149.42 188.78 142.4 193.58 145.17"/>
    </g>
  </g>
  <path class="cls-31" d="m204.33,208.96l-22.01-12.71c9.05-5.16,23.63-6.18,35.34-2.72,14.48,4.28,21.38,15.05,14.4,23.57l-27.74-8.15Z"/>
  <g class="cls-20">
    <path class="cls-37" d="m204.33,208.96l-22.01-12.71c9.05-5.16,23.63-6.18,35.34-2.72,14.48,4.28,21.38,15.05,14.4,23.57l-27.74-8.15Z"/>
  </g>
  <path class="cls-37" d="m224.57,221.91c-1.81,1.05-3.86,1.94-6.25,2.72l-11.38-12.9,22.34,6.57c-1.35,1.38-2.9,2.56-4.71,3.61Z"/>
  <g class="cls-24">
    <path class="cls-12" d="m188.49,224.63c-2.31-.76-4.23-1.61-6.2-2.75-11.27-6.51-11.63-16.97-1.06-23.73l20.29,11.71-13.03,14.76Z"/>
  </g>
  <path class="cls-29" d="m216.27,226.24c-7.97,2.22-17.74,2.2-25.74,0l12.88-14.57,12.86,14.58Z"/>
  <path class="cls-37" d="m188.49,224.63c-2.31-.76-4.23-1.61-6.2-2.75-11.27-6.51-11.63-16.97-1.06-23.73l20.29,11.71-13.03,14.76Z"/>
</svg>