<?xml version="1.0" encoding="UTF-8" standalone="no"?>
<!-- Created with Inkscape (http://www.inkscape.org/) -->

<svg
   version="1.1"
   id="svg132"
   width="287.51599"
   height="134.03732"
   viewBox="0 0 287.51599 134.03732"
   sodipodi:docname="AplosAnalytics_logo_fullcolor.ai"
   xmlns:inkscape="http://www.inkscape.org/namespaces/inkscape"
   xmlns:sodipodi="http://sodipodi.sourceforge.net/DTD/sodipodi-0.dtd"
   xmlns="http://www.w3.org/2000/svg"
   xmlns:svg="http://www.w3.org/2000/svg">
  <defs
     id="defs136">
    <clipPath
       clipPathUnits="userSpaceOnUse"
       id="clipPath148">
      <path
         d="M 0,100.528 H 215.637 V 0 H 0 Z"
         id="path146" />
    </clipPath>
  </defs>
  <sodipodi:namedview
     id="namedview134"
     pagecolor="#ffffff"
     bordercolor="#000000"
     borderopacity="0.25"
     inkscape:showpageshadow="2"
     inkscape:pageopacity="0.0"
     inkscape:pagecheckerboard="0"
     inkscape:deskcolor="#d1d1d1"
     showgrid="false" />
  <g
     id="g140"
     inkscape:groupmode="layer"
     inkscape:label="Page 1"
     transform="matrix(1.3333333,0,0,-1.3333333,0,134.03733)">
    <g
       id="g142">
      <g
         id="g144"
         clip-path="url(#clipPath148)">
        <g
           id="g150"
           transform="translate(18.3886,46.2139)">
          <path
             d="m 0,0 c 2.833,2.858 9.661,9.713 10.497,10.566 0.401,-0.38 1.337,-1.27 2.473,-2.35 L 22.563,29.3 27.925,16.953 c 2.492,2.858 5.169,5.582 7.912,8.229 L 22.752,54.314 -1.938,1.293 C -1.26,0.841 -0.583,0.388 0,0"
             style="fill:#03508c;fill-opacity:1;fill-rule:nonzero;stroke:none"
             id="path152" />
        </g>
        <g
           id="g154"
           transform="translate(57.7419,63.5662)">
          <path
             d="M 0,0 C -2.516,-2.942 -5.182,-5.747 -7.914,-8.491 L 6.496,-41.672 H 18.717 Z"
             style="fill:#03508c;fill-opacity:1;fill-rule:nonzero;stroke:none"
             id="path156" />
        </g>
        <g
           id="g158"
           transform="translate(28.6565,49.3404)">
          <path
             d="m 0,0 c -3.439,-2.858 -9.88,-8.215 -10.008,-8.319 -0.482,0.398 -2.217,1.872 -3.744,3.167 l -10.382,-22.295 h 12.032 L 0.255,-0.288 Z"
             style="fill:#03508c;fill-opacity:1;fill-rule:nonzero;stroke:none"
             id="path160" />
        </g>
        <g
           id="g162"
           transform="translate(76.2685,60.9081)">
          <path
             d="M 0,0 C -2.386,2.795 -4.876,5.475 -7.386,8.137 L -8.098,7.947 -12.056,6.89 c -1.753,1.831 -3.531,3.686 -5.316,5.478 0,0 -1.262,-1.291 -1.262,-1.291 -6.687,-6.595 -15.27,-16.615 -21.745,-24.078 -2.177,2.153 -6.703,6.624 -6.935,6.86 l -0.85,-0.811 -9.539,-9.1 c -1.526,1.079 -5.13,3.654 -5.207,3.686 l -0.436,-0.538 -12.922,-15.928 0.285,-0.245 13.303,14.639 c 1.385,-1.101 4.85,-3.9 5.1,-4.068 l 0.61,0.536 9.551,8.383 6.069,-6.564 c 0,0 1.029,-1.112 1.029,-1.112 0.116,0.124 12.372,12.839 12.884,13.375 3.539,3.678 6.924,7.494 10.246,11.367 1.466,-1.281 2.945,-2.552 4.41,-3.832 l 0.73,0.294 4.126,1.66 c 2.516,-2.004 5.051,-3.986 7.67,-5.877 z"
             style="fill:#59a545;fill-opacity:1;fill-rule:nonzero;stroke:none"
             id="path164" />
        </g>
        <g
           id="g166"
           transform="translate(88.6009,46.3393)">
          <path
             d="m 0,0 h 2.478 c 6.094,0 9.141,2.344 9.141,7.033 0,4.537 -3.142,6.805 -9.426,6.805 L 0,13.838 Z M 0,-6.15 V -24.003 H -6.635 V 19.96 h 7.518 c 3.683,0 6.464,-0.256 8.344,-0.769 1.898,-0.512 3.569,-1.48 5.012,-2.904 2.524,-2.468 3.787,-5.581 3.787,-9.339 0,-4.025 -1.348,-7.214 -4.044,-9.568 C 11.286,-4.973 7.651,-6.15 3.076,-6.15 Z"
             style="fill:#03508c;fill-opacity:1;fill-rule:nonzero;stroke:none"
             id="path168" />
        </g>
        <g
           id="g170"
           transform="translate(120.0965,66.2992)">
          <path
             d="m 0,0 v -37.727 h 12.929 v -6.236 H -6.635 V 0 Z"
             style="fill:#03508c;fill-opacity:1;fill-rule:nonzero;stroke:none"
             id="path172" />
        </g>
        <g
           id="g174"
           transform="translate(142.0238,44.4315)">
          <path
             d="m 0,0 c 0,-4.859 1.633,-8.855 4.898,-11.987 3.246,-3.132 6.996,-4.698 11.248,-4.698 4.614,0 8.506,1.594 11.676,4.783 3.17,3.227 4.756,7.156 4.756,11.788 0,4.688 -1.567,8.618 -4.699,11.788 -3.113,3.189 -6.967,4.784 -11.562,4.784 -4.575,0 -8.438,-1.595 -11.59,-4.784 C 1.576,8.523 0,4.631 0,0 m -6.692,0.085 c 0,6.189 2.269,11.504 6.806,15.946 4.518,4.441 9.948,6.662 16.289,6.662 6.265,0 11.637,-2.24 16.118,-6.719 4.499,-4.481 6.749,-9.862 6.749,-16.145 0,-6.321 -2.259,-11.684 -6.778,-16.087 -4.537,-4.424 -10.014,-6.635 -16.431,-6.635 -5.676,0 -10.774,1.965 -15.292,5.894 -4.974,4.347 -7.461,10.042 -7.461,17.084"
             style="fill:#03508c;fill-opacity:1;fill-rule:nonzero;stroke:none"
             id="path176" />
        </g>
        <g
           id="g178"
           transform="translate(214.4978,59.7503)">
          <path
             d="m 0,0 -5.382,-3.189 c -1.006,1.746 -1.965,2.885 -2.876,3.417 -0.95,0.607 -2.174,0.911 -3.674,0.911 -1.841,0 -3.37,-0.523 -4.585,-1.566 -1.215,-1.025 -1.822,-2.316 -1.822,-3.872 0,-2.146 1.595,-3.873 4.784,-5.183 l 4.385,-1.793 c 3.57,-1.443 6.18,-3.204 7.832,-5.282 1.651,-2.079 2.477,-4.627 2.477,-7.645 0,-4.044 -1.348,-7.385 -4.044,-10.023 -2.714,-2.658 -6.084,-3.986 -10.109,-3.986 -3.816,0 -6.967,1.129 -9.454,3.388 -2.449,2.259 -3.978,5.438 -4.585,9.539 l 6.72,1.48 c 0.304,-2.581 0.836,-4.366 1.595,-5.353 1.367,-1.898 3.36,-2.847 5.98,-2.847 2.07,0 3.788,0.693 5.155,2.078 1.367,1.386 2.05,3.142 2.05,5.268 0,0.854 -0.119,1.637 -0.356,2.349 -0.237,0.712 -0.607,1.367 -1.111,1.965 -0.503,0.598 -1.153,1.157 -1.95,1.68 -0.798,0.522 -1.747,1.02 -2.848,1.494 l -4.243,1.766 c -6.018,2.543 -9.027,6.264 -9.027,11.161 0,3.303 1.262,6.065 3.787,8.286 2.525,2.24 5.667,3.36 9.426,3.36 C -6.806,7.403 -2.848,4.935 0,0"
             style="fill:#03508c;fill-opacity:1;fill-rule:nonzero;stroke:none"
             id="path180" />
        </g>
        <g
           id="g182"
           transform="translate(13.5154,5.8421)">
          <path
             d="M 0,0 -1.945,4.458 -3.983,0 Z M 0.806,-1.859 H -4.807 L -6.268,-5.044 H -8.4 L -1.911,8.891 4.347,-5.044 H 2.182 Z"
             style="fill:#03508c;fill-opacity:1;fill-rule:nonzero;stroke:none"
             id="path184" />
        </g>
        <g
           id="g186"
           transform="translate(34.1129,0.7981)">
          <path
             d="M 0,0 V 14.003 L 9.563,3.999 v 9.112 h 1.978 V -0.798 L 1.978,9.179 V 0 Z"
             style="fill:#03508c;fill-opacity:1;fill-rule:nonzero;stroke:none"
             id="path188" />
        </g>
        <g
           id="g190"
           transform="translate(70.4047,5.8421)">
          <path
             d="M 0,0 -1.945,4.458 -3.983,0 Z m 0.808,-1.859 h -5.615 l -1.46,-3.185 H -8.399 L -1.91,8.891 4.349,-5.044 H 2.183 Z"
             style="fill:#03508c;fill-opacity:1;fill-rule:nonzero;stroke:none"
             id="path192" />
        </g>
        <g
           id="g194"
           transform="translate(92.9817,13.9092)">
          <path
             d="m 0,0 v -11.252 h 3.856 v -1.859 H -1.978 V 0 Z"
             style="fill:#03508c;fill-opacity:1;fill-rule:nonzero;stroke:none"
             id="path196" />
        </g>
        <g
           id="g198"
           transform="translate(114.8623,6.4621)">
          <path
             d="m 0,0 -4.28,7.447 h 2.275 L 0.992,2.208 3.999,7.447 H 6.276 L 1.978,0 V -5.664 H 0 Z"
             style="fill:#03508c;fill-opacity:1;fill-rule:nonzero;stroke:none"
             id="path200" />
        </g>
        <g
           id="g202"
           transform="translate(141.7265,12.0498)">
          <path
             d="M 0,0 V -11.252 H -1.978 V 0 h -3.015 v 1.859 h 8 L 3.007,0 Z"
             style="fill:#03508c;fill-opacity:1;fill-rule:nonzero;stroke:none"
             id="path204" />
        </g>
        <path
           d="m 163.09,0.798 h -1.98 v 13.111 h 1.98 z"
           style="fill:#03508c;fill-opacity:1;fill-rule:nonzero;stroke:none"
           id="path206" />
        <g
           id="g208"
           transform="translate(190.541,13.2048)">
          <path
             d="m 0,0 v -2.344 c -1.144,0.957 -2.326,1.435 -3.549,1.435 -1.348,0 -2.483,-0.484 -3.406,-1.452 -0.928,-0.962 -1.393,-2.14 -1.393,-3.533 0,-1.375 0.465,-2.536 1.393,-3.481 0.928,-0.946 2.066,-1.418 3.414,-1.418 0.696,0 1.288,0.113 1.774,0.34 0.272,0.113 0.555,0.265 0.846,0.458 0.292,0.192 0.598,0.425 0.921,0.697 v -2.387 c -1.132,-0.64 -2.321,-0.959 -3.567,-0.959 -1.873,0 -3.473,0.653 -4.798,1.961 -1.32,1.319 -1.979,2.91 -1.979,4.773 0,1.67 0.552,3.159 1.656,4.466 C -7.329,0.158 -5.57,0.96 -3.414,0.96 -2.237,0.96 -1.098,0.639 0,0"
             style="fill:#03508c;fill-opacity:1;fill-rule:nonzero;stroke:none"
             id="path210" />
        </g>
        <g
           id="g212"
           transform="translate(215.0628,11.956)">
          <path
             d="m 0,0 -1.606,-0.951 c -0.3,0.521 -0.585,0.861 -0.857,1.019 -0.283,0.181 -0.648,0.272 -1.096,0.272 -0.549,0 -1.004,-0.156 -1.367,-0.467 -0.363,-0.306 -0.544,-0.691 -0.544,-1.155 0,-0.64 0.476,-1.155 1.428,-1.546 l 1.307,-0.535 c 1.065,-0.429 1.843,-0.954 2.336,-1.574 0.493,-0.621 0.739,-1.38 0.739,-2.28 0,-1.206 -0.403,-2.203 -1.207,-2.99 -0.808,-0.792 -1.814,-1.189 -3.014,-1.189 -1.139,0 -2.078,0.337 -2.82,1.011 -0.731,0.673 -1.186,1.622 -1.367,2.845 l 2.004,0.441 c 0.091,-0.77 0.249,-1.302 0.475,-1.596 0.408,-0.567 1.003,-0.849 1.784,-0.849 0.617,0 1.129,0.206 1.538,0.619 0.407,0.413 0.61,0.938 0.61,1.572 0,0.254 -0.035,0.488 -0.106,0.7 -0.071,0.212 -0.18,0.408 -0.33,0.586 -0.15,0.178 -0.345,0.345 -0.583,0.501 -0.237,0.156 -0.521,0.304 -0.849,0.446 l -1.264,0.526 c -1.796,0.759 -2.694,1.868 -2.694,3.329 0,0.985 0.377,1.809 1.131,2.471 0.752,0.668 1.69,1.002 2.811,1.002 C -2.03,2.208 -0.849,1.472 0,0"
             style="fill:#03508c;fill-opacity:1;fill-rule:nonzero;stroke:none"
             id="path214" />
        </g>
      </g>
    </g>
  </g>
</svg>
